<?xml version="1.0" encoding="UTF-8"?>
<svg width="96" height="96" viewBox="0 0 96 96" fill="none" xmlns="http://www.w3.org/2000/svg">
  <!-- Background Circle -->
  <circle cx="48" cy="48" r="44" fill="#90CDF4" stroke="#4299E1" stroke-width="4"/>
  
  <!-- Cloud -->
  <path d="M70 48C70 42.48 65.52 38 60 38C59.6 38 59.2 38.03 58.8 38.08C57.6 33.64 53.6 30.5 48.75 30.5C43.08 30.5 38.5 35.08 38.5 40.75C38.5 40.88 38.5 41.02 38.51 41.15C34.16 42.07 31 45.88 31 50.5C31 55.75 35.25 60 40.5 60H68C72.42 60 76 56.42 76 52C76 47.58 72.42 44 68 44C67.6 44 67.2 44.04 66.8 44.11C66.4 45.05 65.8 45.9 65.05 46.6C64.7 46.75 64.35 46.85 63.97 46.92C64.03 46.5 64.07 46.07 64.07 45.64C64.07 42.53 61.54 40 58.43 40C55.32 40 52.79 42.53 52.79 45.64C52.79 46.07 52.83 46.5 52.9 46.92C52.52 46.85 52.16 46.75 51.82 46.6C50.51 45.5 49.65 43.9 49.45 42.1C50.59 41 51.42 39.54 51.75 37.88C52.8 37.57 53.9 37.41 55.04 37.41C56.18 37.41 57.28 37.57 58.33 37.88C58.85 40.08 60.2 41.97 62.06 43.3C63 43.94 64.06 44.42 65.2 44.74C66.47 45.22 67.6 45.93 68.56 46.83C68.78 46.57 68.97 46.29 69.14 46H70Z" fill="white" stroke="#4299E1" stroke-width="3"/>
  
  <!-- Calendar -->
  <rect x="26" y="55" width="44" height="30" rx="2" fill="white" stroke="#4299E1" stroke-width="2"/>
  
  <!-- Calendar Lines -->
  <line x1="26" y1="65" x2="70" y2="65" stroke="#4299E1" stroke-width="2"/>
  <line x1="36" y1="55" x2="36" y2="85" stroke="#4299E1" stroke-width="2"/>
  <line x1="48" y1="55" x2="48" y2="85" stroke="#4299E1" stroke-width="2"/>
  <line x1="60" y1="55" x2="60" y2="85" stroke="#4299E1" stroke-width="2"/>
  <line x1="26" y1="75" x2="70" y2="75" stroke="#4299E1" stroke-width="2"/>
  
  <!-- Weather Icons in Calendar -->
  <circle cx="31" cy="70" r="3" fill="#F6E05E"/>
  <circle cx="42" cy="70" r="2" fill="#90CDF4"/>
  <path d="M54 70C54 71.1 53.1 72 52 72C50.9 72 50 71.1 50 70C50 68.9 52 68 52 68C52 68 54 68.9 54 70Z" fill="#63B3ED"/>
  <path d="M66 69L64 71M64 69L66 71" stroke="#F56565" stroke-width="1" stroke-linecap="round"/>
</svg>
