<?xml version="1.0" encoding="UTF-8"?>
<svg width="192" height="192" viewBox="0 0 192 192" fill="none" xmlns="http://www.w3.org/2000/svg">
  <!-- Background Circle -->
  <circle cx="96" cy="96" r="90" fill="#90CDF4" stroke="#4299E1" stroke-width="6"/>
  
  <!-- Sun -->
  <circle cx="70" cy="70" r="25" fill="#F6E05E" stroke="#ECC94B" stroke-width="3"/>
  
  <!-- Sun Rays -->
  <line x1="70" y1="35" x2="70" y2="45" stroke="#F6E05E" stroke-width="4" stroke-linecap="round"/>
  <line x1="70" y1="95" x2="70" y2="105" stroke="#F6E05E" stroke-width="4" stroke-linecap="round"/>
  <line x1="35" y1="70" x2="45" y2="70" stroke="#F6E05E" stroke-width="4" stroke-linecap="round"/>
  <line x1="95" y1="70" x2="105" y2="70" stroke="#F6E05E" stroke-width="4" stroke-linecap="round"/>
  <line x1="47" y1="47" x2="54" y2="54" stroke="#F6E05E" stroke-width="4" stroke-linecap="round"/>
  <line x1="86" y1="86" x2="93" y2="93" stroke="#F6E05E" stroke-width="4" stroke-linecap="round"/>
  <line x1="47" y1="93" x2="54" y2="86" stroke="#F6E05E" stroke-width="4" stroke-linecap="round"/>
  <line x1="86" y1="54" x2="93" y2="47" stroke="#F6E05E" stroke-width="4" stroke-linecap="round"/>
  
  <!-- Cloud -->
  <path d="M140 120C140 110 132 102 122 102C121.2 102 120.4 102.06 119.6 102.17C117.2 93.28 109 87 99 87C87.4 87 78 96.4 78 108C78 108.26 78.01 108.53 78.02 108.79C69.2 110.63 62.5 118.56 62.5 128C62.5 138.5 71 147 81.5 147H135C144.94 147 153 138.94 153 129C153 119.06 144.94 111 135 111C134.1 111 133.2 111.08 132.33 111.22C131.4 113.1 130.1 114.8 128.5 116.2C127.75 116.5 126.95 116.7 126.1 116.85C126.25 116 126.33 115.1 126.33 114.2C126.33 108.6 121.8 104.07 116.2 104.07C110.6 104.07 106.07 108.6 106.07 114.2C106.07 115.1 106.15 116 106.3 116.85C105.45 116.7 104.65 116.5 103.9 116.2C101.3 113.8 99.6 110.4 99.2 106.6C101.45 104.25 103 101.1 103.7 97.6C105.75 97 107.95 96.7 110.2 96.7C112.45 96.7 114.65 97 116.7 97.6C117.7 102.4 120.4 106.5 124.3 109.2C126.25 110.5 128.45 111.5 130.8 112.1C133.15 113 135.2 114.35 136.9 116C137.3 115.5 137.65 114.95 137.95 114.4H140Z" fill="white" stroke="#4299E1" stroke-width="4"/>
  
  <!-- Raindrops -->
  <path d="M85 135C85 138 82.5 140.5 79.5 140.5C76.5 140.5 74 138 74 135C74 132 79.5 127.5 79.5 127.5C79.5 127.5 85 132 85 135Z" fill="#63B3ED"/>
  <path d="M105 142C105 145 102.5 147.5 99.5 147.5C96.5 147.5 94 145 94 142C94 139 99.5 134.5 99.5 134.5C99.5 134.5 105 139 105 142Z" fill="#63B3ED"/>
  <path d="M125 135C125 138 122.5 140.5 119.5 140.5C116.5 140.5 114 138 114 135C114 132 119.5 127.5 119.5 127.5C119.5 127.5 125 132 125 135Z" fill="#63B3ED"/>
</svg>
