<?xml version="1.0" encoding="UTF-8"?>
<svg width="512" height="512" viewBox="0 0 512 512" fill="none" xmlns="http://www.w3.org/2000/svg">
  <!-- Background Circle -->
  <circle cx="256" cy="256" r="248" fill="#90CDF4" stroke="#4299E1" stroke-width="16"/>
  
  <!-- Sun -->
  <circle cx="180" cy="180" r="70" fill="#F6E05E" stroke="#ECC94B" stroke-width="8"/>
  
  <!-- Sun Rays -->
  <line x1="180" y1="80" x2="180" y2="100" stroke="#F6E05E" stroke-width="12" stroke-linecap="round"/>
  <line x1="180" y1="260" x2="180" y2="280" stroke="#F6E05E" stroke-width="12" stroke-linecap="round"/>
  <line x1="80" y1="180" x2="100" y2="180" stroke="#F6E05E" stroke-width="12" stroke-linecap="round"/>
  <line x1="260" y1="180" x2="280" y2="180" stroke="#F6E05E" stroke-width="12" stroke-linecap="round"/>
  <line x1="113" y1="113" x2="127" y2="127" stroke="#F6E05E" stroke-width="12" stroke-linecap="round"/>
  <line x1="233" y1="233" x2="247" y2="247" stroke="#F6E05E" stroke-width="12" stroke-linecap="round"/>
  <line x1="113" y1="247" x2="127" y2="233" stroke="#F6E05E" stroke-width="12" stroke-linecap="round"/>
  <line x1="233" y1="127" x2="247" y2="113" stroke="#F6E05E" stroke-width="12" stroke-linecap="round"/>
  
  <!-- Cloud -->
  <path d="M380 320C380 293.49 358.51 272 332 272C329.9 272 327.83 272.16 325.81 272.47C318.94 248.22 296.83 230 270 230C238.58 230 213 255.58 213 287C213 287.71 213.02 288.42 213.05 289.12C188.64 294.36 170 316.28 170 342.5C170 373.21 194.79 398 225.5 398H370C394.85 398 415 377.85 415 353C415 328.15 394.85 308 370 308C367.58 308 365.21 308.21 362.9 308.6C360.38 313.93 356.91 318.74 352.67 322.81C350.67 323.59 348.58 324.17 346.42 324.53C346.8 322.06 347 319.55 347 317C347 300.43 333.57 287 317 287C300.43 287 287 300.43 287 317C287 319.55 287.2 322.06 287.58 324.53C285.42 324.17 283.33 323.59 281.33 322.81C273.8 316.37 268.87 307.06 267.69 296.54C274.26 290.17 279 281.47 280.93 271.69C286.9 269.92 293.3 269 300 269C306.7 269 313.1 269.92 319.07 271.69C322.01 284.92 329.57 296.35 340.31 304.19C345.67 307.93 351.67 310.8 358.1 312.6C365.31 315.4 371.76 319.6 377.1 324.9C378.36 323.35 379.5 321.7 380.5 320H380Z" fill="white" stroke="#4299E1" stroke-width="12"/>
  
  <!-- Raindrops -->
  <path d="M230 370C230 377.732 223.732 384 216 384C208.268 384 202 377.732 202 370C202 362.268 216 350 216 350C216 350 230 362.268 230 370Z" fill="#63B3ED"/>
  <path d="M290 390C290 397.732 283.732 404 276 404C268.268 404 262 397.732 262 390C262 382.268 276 370 276 370C276 370 290 382.268 290 390Z" fill="#63B3ED"/>
  <path d="M350 370C350 377.732 343.732 384 336 384C328.268 384 322 377.732 322 370C322 362.268 336 350 336 350C336 350 350 362.268 350 370Z" fill="#63B3ED"/>
</svg>
