<?xml version="1.0" encoding="UTF-8"?>
<svg width="100" height="100" viewBox="0 0 100 100" xmlns="http://www.w3.org/2000/svg">
  <!-- Sun -->
  <circle cx="50" cy="50" r="24" fill="#FFD700" stroke="#F6AD55" stroke-width="2">
    <animate attributeName="opacity" values="0.8;1;0.8" dur="3s" repeatCount="indefinite" />
  </circle>
  
  <!-- Sun rays -->
  <g stroke="#FFD700" stroke-width="4" stroke-linecap="round">
    <line x1="50" y1="15" x2="50" y2="25">
      <animate attributeName="opacity" values="0.6;1;0.6" dur="3s" repeatCount="indefinite" />
    </line>
    <line x1="50" y1="75" x2="50" y2="85">
      <animate attributeName="opacity" values="0.6;1;0.6" dur="3s" repeatCount="indefinite" />
    </line>
    <line x1="15" y1="50" x2="25" y2="50">
      <animate attributeName="opacity" values="0.6;1;0.6" dur="3s" repeatCount="indefinite" />
    </line>
    <line x1="75" y1="50" x2="85" y2="50">
      <animate attributeName="opacity" values="0.6;1;0.6" dur="3s" repeatCount="indefinite" />
    </line>
    <line x1="25" y1="25" x2="32" y2="32">
      <animate attributeName="opacity" values="0.6;1;0.6" dur="3s" repeatCount="indefinite" />
    </line>
    <line x1="68" y1="68" x2="75" y2="75">
      <animate attributeName="opacity" values="0.6;1;0.6" dur="3s" repeatCount="indefinite" />
    </line>
    <line x1="25" y1="75" x2="32" y2="68">
      <animate attributeName="opacity" values="0.6;1;0.6" dur="3s" repeatCount="indefinite" />
    </line>
    <line x1="68" y1="32" x2="75" y2="25">
      <animate attributeName="opacity" values="0.6;1;0.6" dur="3s" repeatCount="indefinite" />
    </line>
  </g>
  
  <!-- Cloud -->
  <path d="M30,65 Q20,65 20,60 Q20,55 25,55 Q25,45 35,45 Q45,45 45,55 Q55,50 60,55 Q65,60 60,65 Z" 
        fill="#A8D8EA" stroke="#7FBEEB" stroke-width="1.5">
    <animate attributeName="opacity" values="0.8;1;0.8" dur="4s" repeatCount="indefinite" />
  </path>
</svg>
